<?xml version="1.0" encoding="utf-8"?>
<!-- Generator: Adobe Illustrator 16.0.4, SVG Export Plug-In . SVG Version: 6.00 Build 0)  -->
<!DOCTYPE svg PUBLIC "-//W3C//DTD SVG 1.1//EN" "http://www.w3.org/Graphics/SVG/1.1/DTD/svg11.dtd">
<svg version="1.1" id="Layer_1" xmlns="http://www.w3.org/2000/svg" xmlns:xlink="http://www.w3.org/1999/xlink" x="0px" y="0px"
	 width="337.397px" height="143.642px" viewBox="0 0 337.397 143.642" enable-background="new 0 0 337.397 143.642"
	 xml:space="preserve">
<g>
	<polygon opacity="0.2" fill="#1B1F8A" points="36.701,143.142 0.541,97.798 13.446,41.256 65.699,16.093 117.952,41.256 
		130.856,97.798 94.697,143.142 	"/>
	<polygon fill="none" stroke="#000000" stroke-miterlimit="10" points="36.701,143.142 0.541,97.798 13.446,41.256 65.699,16.093 
		117.952,41.256 130.856,97.798 94.697,143.142 	"/>
</g>
<polygon opacity="0.2" fill="#1B1F8A" points="242.701,143.142 206.541,97.798 219.446,41.256 271.699,16.093 323.952,41.256 
	336.856,97.798 300.697,143.142 "/>
<polygon fill="none" stroke="#000000" stroke-miterlimit="10" points="242.701,143.142 206.541,97.798 219.446,41.256 
	271.699,16.093 323.952,41.256 336.856,97.798 300.697,143.142 "/>
<g>
	<g>
		<path fill="none" stroke="#000000" stroke-width="3" stroke-miterlimit="10" d="M220.278,26.961
			c-18.176-6.461-37.743-9.979-58.134-9.979c-20.525,0-40.22,3.564-58.494,10.107"/>
		<g>
			<polygon points="230.146,30.815 218.375,19.799 219.51,26.758 214.028,31.192 			"/>
		</g>
	</g>
</g>
<line fill="none" stroke="#000000" stroke-miterlimit="10" x1="270.735" y1="80.928" x2="245.572" y2="28.674"/>
<line fill="none" stroke="#000000" stroke-miterlimit="10" x1="269.536" y1="82.432" x2="212.994" y2="69.527"/>
<line fill="none" stroke="#000000" stroke-miterlimit="10" x1="269.965" y1="84.311" x2="224.621" y2="120.471"/>
<line fill="none" stroke="#000000" stroke-miterlimit="10" x1="271.699" y1="85.146" x2="271.699" y2="143.142"/>
<line fill="none" stroke="#000000" stroke-miterlimit="10" x1="273.434" y1="84.312" x2="318.777" y2="120.47"/>
<line fill="none" stroke="#000000" stroke-miterlimit="10" x1="273.861" y1="82.432" x2="330.404" y2="69.527"/>
<line fill="none" stroke="#000000" stroke-miterlimit="10" x1="272.663" y1="80.928" x2="297.826" y2="28.674"/>
<circle cx="271.699" cy="82.949" r="3.333"/>
<g>
	<defs>
		<rect id="SVGID_1_" x="105.576" width="109" height="14"/>
	</defs>
	<clipPath id="SVGID_2_">
		<use xlink:href="#SVGID_1_"  overflow="visible"/>
	</clipPath>
	<path clip-path="url(#SVGID_2_)" d="M106.561,7.876c0,1.118-0.053,1.73-0.238,2.583c1.091,0.506,1.996,0.692,3.115,0.692
		c2.689,0,4.42-1.385,4.42-3.542c0-1.331-0.799-2.263-2.264-2.636l-1.704-0.453c-1.118-0.293-1.598-0.745-1.598-1.518
		c0-1.038,0.825-1.757,1.997-1.757c0.799,0,1.465,0.266,2.051,0.825l0.08,1.225h0.611c0-0.959,0.08-1.678,0.213-2.104l-0.079-0.187
		c-0.985-0.373-1.784-0.506-2.77-0.506c-2.476,0-3.968,1.198-3.968,3.195c0,1.278,0.772,2.236,2.184,2.663l2.104,0.612
		c0.853,0.267,1.252,0.719,1.252,1.438c0,1.118-0.959,1.944-2.264,1.944c-1.012,0-1.971-0.453-2.449-1.172l-0.107-1.305H106.561"/>
	<path clip-path="url(#SVGID_2_)" d="M120.434,9.713l-0.053,1.226c1.225-0.027,1.225-0.027,1.411-0.027c0.134,0,0.399,0,0.799,0.027
		c0.106,0,0.399,0,0.72,0v-0.56l-0.507-0.026c-0.452-0.027-0.532-0.134-0.532-0.959V3.936l-0.16-0.08l-1.038,0.319
		c-0.479,0.159-0.772,0.187-1.678,0.319v0.532l0.666,0.054c0.347,0.026,0.372,0.16,0.372,1.038v2.344
		c0,0.719-0.639,1.357-1.438,1.357c-0.852,0-1.145-0.532-1.145-1.97V3.936l-0.16-0.08l-1.039,0.319
		c-0.506,0.159-0.744,0.187-1.703,0.319v0.532l0.666,0.054c0.346,0.026,0.398,0.16,0.398,1.038v2.689
		c0,1.518,0.799,2.344,2.236,2.344c0.453,0,0.826-0.106,1.066-0.347L120.434,9.713"/>
	<path clip-path="url(#SVGID_2_)" d="M126.824,5.932c0.347-0.479,0.826-0.745,1.438-0.745c1.171,0,1.864,0.905,1.864,2.396
		c0,1.571-0.693,2.557-1.785,2.557c-0.611,0-1.091-0.267-1.518-0.826V5.932 M126.824,0.207l-0.105-0.08l-1.092,0.32
		c-0.426,0.133-0.933,0.213-1.811,0.319v0.532l0.799,0.054c0.346,0,0.398,0.159,0.398,1.038v6.071c0,0.799-0.053,1.704-0.133,2.503
		l0.32,0.106l0.585-0.479c0.692,0.373,1.331,0.56,1.971,0.56c0.452,0,0.853-0.106,1.305-0.373c0.586-0.346,1.278-0.825,1.704-1.172
		c0.746-0.612,1.225-1.757,1.225-2.902c0-1.678-1.118-2.849-2.689-2.849c-0.586,0-1.038,0.159-1.544,0.586l-0.933,0.719V0.207z"/>
	<path clip-path="url(#SVGID_2_)" d="M138.647,8.515c0,0.666-0.692,1.226-1.519,1.226c-1.064,0-1.73-1.039-1.73-2.663
		c0-1.518,0.506-2.264,1.571-2.264c0.666,0,1.198,0.293,1.678,0.933V8.515 M140.484,0.207l-0.106-0.08l-1.092,0.32
		c-0.426,0.133-0.932,0.213-1.811,0.319v0.532l0.799,0.054c0.319,0,0.373,0.159,0.373,1.038v1.837l-0.293-0.133
		c-0.427-0.159-0.825-0.239-1.198-0.239c-0.479,0-0.905,0.133-1.305,0.372l-1.092,0.72c-0.852,0.559-1.252,1.411-1.252,2.716
		c0,2.13,1.119,3.488,2.85,3.488c0.346,0,0.586-0.054,0.746-0.187l1.544-1.252l-0.054,1.119l0.054,0.106
		c0.905-0.027,1.198-0.027,1.358-0.027c0.105,0,0.398,0,0.799,0.027c0.105,0,0.398,0,0.719,0v-0.56l-0.506-0.026
		c-0.453-0.027-0.533-0.134-0.533-0.959V0.207z"/>
	<path clip-path="url(#SVGID_2_)" d="M144.426,0.313c-0.666,0-1.146,0.506-1.146,1.118c0,0.64,0.479,1.146,1.118,1.146
		c0.613,0,1.119-0.506,1.119-1.118S145.038,0.313,144.426,0.313 M145.225,3.855l-1.039,0.319c-0.479,0.159-0.852,0.213-1.465,0.293
		c-0.053,0-0.133,0-0.239,0.026v0.532l0.666,0.054c0.347,0.026,0.399,0.16,0.399,1.038v3.275c0,0.825-0.08,0.932-0.533,0.959
		l-0.532,0.026v0.56l1.944-0.027c0.293,0,1.012,0,2.023,0.027v-0.56l-0.533-0.026c-0.452-0.027-0.532-0.134-0.532-0.959V3.936
		L145.225,3.855z"/>
	<path clip-path="url(#SVGID_2_)" d="M150.363,10.938h1.305c0.24-0.666,0.373-1.039,0.56-1.438l1.917-4.313
		c0.133-0.346,0.293-0.479,0.533-0.506l0.452-0.08V4.015l-1.438,0.054c-0.745,0-0.879,0-1.438-0.054v0.586l0.559,0.026
		c0.214,0,0.347,0.106,0.347,0.24c0,0.187-0.054,0.399-0.133,0.639l-0.905,2.237c-0.133,0.346-0.267,0.665-0.533,1.198l-1.305-3.302
		c-0.16-0.373-0.213-0.586-0.213-0.772c0-0.134,0.107-0.24,0.346-0.24l0.613-0.026V4.015l-1.943,0.054c-0.188,0-0.427,0-1.944-0.054
		v0.586l0.372,0.026c0.268,0.027,0.453,0.293,0.72,0.933L150.363,10.938"/>
	<path clip-path="url(#SVGID_2_)" d="M157.713,0.313c-0.639,0-1.146,0.506-1.146,1.118c0,0.64,0.507,1.146,1.146,1.146
		c0.612,0,1.118-0.506,1.118-1.118S158.325,0.313,157.713,0.313 M158.538,3.855l-1.065,0.319c-0.479,0.159-0.825,0.213-1.465,0.293
		c-0.053,0-0.105,0-0.213,0.026v0.532l0.666,0.054c0.346,0.026,0.399,0.16,0.399,1.038v3.275c0,0.825-0.079,0.932-0.56,0.959
		l-0.506,0.026v0.56l1.918-0.027c0.293,0,1.012,0,2.023,0.027v-0.56l-0.533-0.026c-0.452-0.027-0.532-0.134-0.532-0.959V3.936
		L158.538,3.855z"/>
	<path clip-path="url(#SVGID_2_)" d="M165.967,8.515c0,0.666-0.719,1.226-1.544,1.226c-1.065,0-1.731-1.039-1.731-2.663
		c0-1.518,0.533-2.264,1.598-2.264c0.64,0,1.172,0.293,1.678,0.933V8.515 M167.777,0.207l-0.105-0.08l-1.092,0.32
		c-0.427,0.133-0.933,0.213-1.811,0.319v0.532l0.799,0.054c0.318,0,0.398,0.159,0.398,1.038v1.837l-0.319-0.133
		c-0.399-0.159-0.825-0.239-1.198-0.239c-0.479,0-0.905,0.133-1.305,0.372l-1.092,0.72c-0.852,0.559-1.252,1.411-1.252,2.716
		c0,2.13,1.119,3.488,2.877,3.488c0.346,0,0.559-0.054,0.719-0.187l1.57-1.252l-0.08,1.119l0.08,0.106
		c0.879-0.027,1.172-0.027,1.332-0.027c0.133,0,0.398,0,0.825,0.027c0.106,0,0.372,0,0.692,0v-0.56l-0.506-0.026
		c-0.453-0.027-0.533-0.134-0.533-0.959V0.207z"/>
	<path clip-path="url(#SVGID_2_)" d="M173.13,6.811h-0.08c-0.079,0-0.479-0.026-0.719-0.026l-0.479-0.026
		c0.053-1.465,0.426-2.077,1.278-2.077s1.225,0.612,1.252,2.077L173.13,6.811 M176.271,6.491c0-1.624-1.118-2.636-2.822-2.636
		c-0.532,0-0.905,0.106-1.305,0.346l-0.719,0.399c-0.985,0.586-1.411,1.491-1.411,2.902c0,2.396,1.198,3.648,3.408,3.648
		c0.878,0,1.411-0.134,2.37-0.64l0.346-0.719l-0.187-0.213c-0.718,0.373-1.145,0.506-1.757,0.506c-0.772,0-1.518-0.426-1.891-1.065
		c-0.24-0.426-0.32-0.745-0.347-1.464h1.944c0.878,0,1.544-0.08,2.369-0.293V6.491z"/>
	<path clip-path="url(#SVGID_2_)" d="M183.088,1.325c0.8,0,1.412,0.267,1.945,0.772c0.824,0.799,1.277,2.236,1.277,3.941
		c0,2.822-1.145,4.286-3.328,4.286c-0.826,0-1.438-0.239-1.971-0.799c-0.826-0.771-1.278-2.21-1.278-3.94
		c0-1.518,0.373-2.716,1.039-3.408C181.357,1.618,182.131,1.325,183.088,1.325 M188.468,12.695v-0.559l-0.16,0.079
		c-0.506,0.187-0.772,0.267-1.038,0.267c-0.373,0-1.039-0.133-1.598-0.319l-1.784-0.64c-0.427-0.133-0.8-0.239-1.519-0.372
		c0.16,0,0.214,0,0.32-0.027c1.65,0,3.008-0.346,3.887-1.038c1.305-0.959,1.998-2.423,1.998-4.367c0-3.328-1.971-5.219-5.406-5.219
		c-3.567,0-5.697,2.023-5.697,5.432c0,1.997,0.719,3.488,2.023,4.367c0.745,0.479,1.357,0.666,2.689,0.825
		c-0.799,0.293-1.332,0.64-2.424,1.491l0.188,0.479c0.718-0.506,1.091-0.692,1.438-0.692c0.373,0,0.611,0.054,1.49,0.293
		l2.982,0.799c0.373,0.106,0.693,0.16,1.065,0.16L188.468,12.695z"/>
	<path clip-path="url(#SVGID_2_)" d="M195.15,9.713l-0.08,1.226c1.252-0.027,1.252-0.027,1.412-0.027s0.398,0,0.825,0.027
		c0.106,0,0.372,0,0.692,0v-0.56l-0.479-0.026c-0.479-0.027-0.559-0.134-0.559-0.959V3.936l-0.134-0.08l-1.064,0.319
		c-0.479,0.159-0.746,0.187-1.678,0.319v0.532l0.665,0.054c0.347,0.026,0.399,0.16,0.399,1.038v2.344
		c0,0.719-0.639,1.357-1.438,1.357c-0.852,0-1.172-0.532-1.172-1.97V3.936l-0.159-0.08l-1.039,0.319
		c-0.506,0.159-0.745,0.187-1.704,0.319v0.532l0.692,0.054c0.347,0.026,0.373,0.16,0.373,1.038v2.689
		c0,1.518,0.825,2.344,2.263,2.344c0.426,0,0.826-0.106,1.039-0.347L195.15,9.713"/>
	<path clip-path="url(#SVGID_2_)" d="M202.846,9.181c-0.266,0.399-0.825,0.666-1.277,0.666c-0.48,0-0.772-0.347-0.772-0.933
		c0-0.745,0.319-1.038,1.385-1.331l0.665-0.16V9.181 M202.846,9.899l-0.08,0.933l0.08,0.106c0.933-0.027,1.199-0.027,1.359-0.027
		c0.186,0,0.426,0,1.33,0.027v-0.56l-0.452-0.026c-0.319-0.054-0.399-0.213-0.426-0.933V9.127c0-0.479-0.026-0.905-0.026-1.277
		c0-0.399,0.026-0.879,0.026-1.438c0.026-0.187,0.026-0.346,0.026-0.426c0-1.358-0.905-2.13-2.424-2.13
		c-0.611,0-1.225,0.159-1.783,0.506l-0.799,0.479v1.038l0.453,0.106l0.318-0.772c0.054-0.106,0.48-0.187,0.879-0.187
		c1.012,0,1.491,0.533,1.518,1.758l-1.305,0.267c-1.891,0.399-2.557,0.985-2.557,2.236c0,1.225,0.613,1.864,1.731,1.864
		c0.347,0,0.586-0.054,0.745-0.187L202.846,9.899z"/>
	<path clip-path="url(#SVGID_2_)" d="M211.66,8.515c0,0.666-0.72,1.226-1.519,1.226c-1.064,0-1.757-1.039-1.757-2.663
		c0-1.518,0.533-2.264,1.598-2.264c0.639,0,1.172,0.293,1.678,0.933V8.515 M213.497,0.207l-0.134-0.08l-1.092,0.32
		c-0.426,0.133-0.932,0.213-1.811,0.319v0.532l0.799,0.054c0.347,0,0.4,0.159,0.4,1.038v1.837l-0.293-0.133
		c-0.427-0.159-0.826-0.239-1.198-0.239c-0.479,0-0.933,0.133-1.332,0.372l-1.064,0.72c-0.853,0.559-1.278,1.411-1.278,2.716
		c0,2.13,1.119,3.488,2.876,3.488c0.346,0,0.585-0.054,0.718-0.187l1.572-1.252l-0.08,1.119l0.08,0.106
		c0.904-0.027,1.172-0.027,1.357-0.027c0.106,0,0.373,0,0.799,0.027c0.106,0,0.399,0,0.693,0v-0.56l-0.48-0.026
		c-0.479-0.027-0.532-0.134-0.532-0.959V0.207z"/>
</g>
</svg>
