<?xml version="1.0" encoding="utf-8"?>
<!-- Generator: Adobe Illustrator 16.0.4, SVG Export Plug-In . SVG Version: 6.00 Build 0)  -->
<!DOCTYPE svg PUBLIC "-//W3C//DTD SVG 1.1//EN" "http://www.w3.org/Graphics/SVG/1.1/DTD/svg11.dtd">
<svg version="1.1" id="Layer_1" xmlns="http://www.w3.org/2000/svg" xmlns:xlink="http://www.w3.org/1999/xlink" x="0px" y="0px"
	 width="263.45px" height="208.958px" viewBox="0 0 263.45 208.958" enable-background="new 0 0 263.45 208.958"
	 xml:space="preserve">
<path opacity="0.2" fill="#1B1F8A" d="M111.708,197.789c-41.091-24.086-52.175-65.427-52.175-65.427l18.621-81.583l75.395-36.308
	c0,0,48.721,6.883,75.395,36.308s-15.826,52.924-22.326,104.424S152.799,221.875,111.708,197.789z"/>
<g>
	<polyline fill="none" stroke="#000000" stroke-miterlimit="10" points="59.533,132.362 78.154,50.778 153.549,14.471 	"/>
	<circle cx="78.154" cy="50.778" r="3.413"/>
	<circle cx="59.533" cy="132.362" r="3.413"/>
	<circle cx="153.549" cy="14.471" r="3.412"/>
</g>
<g>
	<polyline fill="none" stroke="#000000" stroke-miterlimit="10" points="93.746,141.537 106.367,71.953 167.762,43.645 	"/>
	<circle cx="106.367" cy="71.953" r="3.413"/>
	<circle cx="93.746" cy="141.537" r="3.413"/>
	<circle cx="167.762" cy="43.645" r="3.412"/>
</g>
<line fill="none" stroke="#000000" stroke-miterlimit="10" x1="78.154" y1="50.778" x2="106.367" y2="71.953"/>
<line fill="none" stroke="#000000" stroke-miterlimit="10" x1="153.549" y1="14.471" x2="167.762" y2="43.645"/>
<line fill="none" stroke="#000000" stroke-miterlimit="10" x1="59.533" y1="132.362" x2="93.746" y2="141.537"/>
<g>
	<g>
		<line fill="none" stroke="#000000" stroke-miterlimit="10" x1="97.03" y1="71.344" x2="80.969" y2="59.29"/>
		<g>
			<polygon points="81.576,59.12 82.45,63.973 81.464,64.149 80.402,58.238 			"/>
		</g>
	</g>
</g>
<g>
	<g>
		<line fill="none" stroke="#000000" stroke-miterlimit="10" x1="161.071" y1="40.021" x2="153.019" y2="23.491"/>
		<g>
			<polygon points="153.638,23.616 152.201,28.334 151.244,28.041 152.995,22.297 			"/>
		</g>
	</g>
</g>
<g>
	<g>
		<line fill="none" stroke="#000000" stroke-miterlimit="10" x1="85.39" y1="143.954" x2="65.909" y2="138.73"/>
		<g>
			<polygon points="66.41,138.345 69.029,142.524 68.18,143.054 64.992,137.964 			"/>
		</g>
	</g>
</g>
<text transform="matrix(1 0 0 1 74.1538 80.2026)" font-family="'Courier'" font-size="10">hs[i]</text>
<text transform="matrix(1 0 0 1 117.1538 42.895)" font-family="'Courier'" font-size="10">hs[i-1]</text>
<text transform="matrix(1 0 0 1 54.9038 154.145)" font-family="'Courier'" font-size="10">hs[i+1]</text>
<text transform="matrix(1 0 0 1 42.1172 42.895)" font-family="'Courier'" font-size="10">orig[i]</text>
<text transform="matrix(1 0 0 1 110.4502 80.2026)" font-family="'Courier'" font-size="10">hs[i]-&gt;vertex()-&gt;position</text>
<text transform="matrix(1 0 0 1 120.667 7.895)" font-family="'Courier'" font-size="10">orig[i-1]</text>
<text transform="matrix(1 0 0 1 0 133.7749)" font-family="'Courier'" font-size="10">orig[i+1]</text>
</svg>
