<?xml version="1.0" encoding="utf-8"?>
<!-- Generator: Adobe Illustrator 16.0.4, SVG Export Plug-In . SVG Version: 6.00 Build 0)  -->
<!DOCTYPE svg PUBLIC "-//W3C//DTD SVG 1.1//EN" "http://www.w3.org/Graphics/SVG/1.1/DTD/svg11.dtd">
<svg version="1.1" id="Layer_1" xmlns="http://www.w3.org/2000/svg" xmlns:xlink="http://www.w3.org/1999/xlink" x="0px" y="0px"
	 width="989.435px" height="568.121px" viewBox="0 0 989.435 568.121" enable-background="new 0 0 989.435 568.121"
	 xml:space="preserve">
<g>
	<g>
		<polygon opacity="0.2" fill="#1B1F8A" points="368.269,259.956 262.38,321.09 262.381,443.356 303.126,567.621 433.78,567.621 
			474.155,443.358 474.155,321.09 		"/>
		<polygon fill="none" stroke="#000000" stroke-miterlimit="10" points="368.269,259.956 262.38,321.09 262.381,443.356 
			303.126,567.621 433.78,567.621 474.155,443.358 474.155,321.09 		"/>
		<polygon fill="none" stroke="#000000" stroke-miterlimit="10" points="368.269,259.956 262.38,321.09 262.381,443.356 
			303.126,567.621 433.78,567.621 474.155,443.358 474.155,321.09 		"/>
		<line fill="#FFFFFF" stroke="#000000" stroke-miterlimit="10" x1="368.453" y1="376.345" x2="474.155" y2="321.09"/>
		<line fill="none" stroke="#000000" stroke-miterlimit="10" x1="368.453" y1="376.345" x2="368.453" y2="259.956"/>
		<line fill="none" stroke="#000000" stroke-miterlimit="10" x1="368.453" y1="376.345" x2="262.38" y2="321.09"/>
		<line fill="none" stroke="#000000" stroke-miterlimit="10" x1="368.453" y1="376.345" x2="262.751" y2="443.358"/>
		<line fill="none" stroke="#000000" stroke-miterlimit="10" x1="368.453" y1="376.345" x2="474.155" y2="443.358"/>
		
			<line fill="none" stroke="#000000" stroke-width="6" stroke-linecap="round" stroke-miterlimit="10" x1="368.453" y1="376.345" x2="368.453" y2="484.927"/>
		<line fill="none" stroke="#000000" stroke-miterlimit="10" x1="368.453" y1="484.927" x2="433.78" y2="567.621"/>
		<line fill="none" stroke="#000000" stroke-miterlimit="10" x1="368.453" y1="484.927" x2="303.126" y2="567.621"/>
		<line fill="none" stroke="#000000" stroke-miterlimit="10" x1="368.453" y1="484.927" x2="474.155" y2="443.358"/>
		<line fill="none" stroke="#000000" stroke-miterlimit="10" x1="368.453" y1="484.927" x2="262.381" y2="443.356"/>
		<g>
			<polygon opacity="0.2" fill="#1B1F8A" points="635.119,316.837 579,347.111 576.059,413.788 582.083,464.142 602.456,526.274 
				667.783,526.274 688.165,464.065 694.181,413.788 691.238,347.111 			"/>
			<polygon opacity="0.2" fill="#1B1F8A" points="634.935,259.956 529.046,321.09 529.048,443.356 569.792,567.621 700.447,567.621 
				740.822,443.358 740.822,321.09 			"/>
			<polyline fill="none" stroke="#000000" stroke-miterlimit="10" points="740.822,412.228 740.822,321.09 634.935,259.956 
				529.046,321.09 529.048,443.356 569.792,567.621 700.447,567.621 708.265,543.557 			"/>
			<polyline fill="none" stroke="#000000" stroke-miterlimit="10" points="712.402,530.828 740.822,443.358 740.822,426.228 			"/>
			<line fill="#FFFFFF" stroke="#000000" stroke-miterlimit="10" x1="691.142" y1="347.06" x2="740.822" y2="321.09"/>
			<line fill="none" stroke="#000000" stroke-miterlimit="10" x1="635.119" y1="316.561" x2="635.119" y2="259.956"/>
			<line fill="none" stroke="#000000" stroke-miterlimit="10" x1="579.006" y1="347.114" x2="529.046" y2="321.09"/>
			<line fill="none" stroke="#000000" stroke-miterlimit="10" x1="576.059" y1="413.788" x2="529.417" y2="443.358"/>
			<line fill="none" stroke="#000000" stroke-miterlimit="10" x1="694.181" y1="413.788" x2="740.822" y2="443.358"/>
			<line fill="none" stroke="#000000" stroke-miterlimit="10" x1="667.783" y1="526.274" x2="700.447" y2="567.621"/>
			<line fill="none" stroke="#000000" stroke-miterlimit="10" x1="602.455" y1="526.274" x2="569.792" y2="567.621"/>
			<line fill="none" stroke="#000000" stroke-miterlimit="10" x1="688.165" y1="464.065" x2="740.822" y2="443.358"/>
			<line fill="none" stroke="#000000" stroke-miterlimit="10" x1="582.083" y1="464.142" x2="529.048" y2="443.356"/>
			<line fill="#FFFFFF" stroke="#000000" stroke-miterlimit="10" x1="691.142" y1="347.06" x2="740.822" y2="321.09"/>
			<line fill="none" stroke="#000000" stroke-miterlimit="10" x1="635.119" y1="316.561" x2="635.119" y2="259.956"/>
			<line fill="none" stroke="#000000" stroke-miterlimit="10" x1="579.006" y1="347.114" x2="529.046" y2="321.09"/>
			<line fill="none" stroke="#000000" stroke-miterlimit="10" x1="576.059" y1="413.788" x2="529.417" y2="443.358"/>
			<line fill="none" stroke="#000000" stroke-miterlimit="10" x1="694.181" y1="413.788" x2="740.822" y2="443.358"/>
			<line fill="none" stroke="#000000" stroke-miterlimit="10" x1="667.783" y1="526.274" x2="700.447" y2="567.621"/>
			<line fill="none" stroke="#000000" stroke-miterlimit="10" x1="602.455" y1="526.274" x2="569.792" y2="567.621"/>
			<line fill="none" stroke="#000000" stroke-miterlimit="10" x1="688.165" y1="464.065" x2="740.822" y2="443.358"/>
			<line fill="none" stroke="#000000" stroke-miterlimit="10" x1="582.083" y1="464.142" x2="529.048" y2="443.356"/>
			<polyline fill="none" stroke="#000000" stroke-miterlimit="10" points="691.572,435.597 694.179,413.788 691.238,347.111 
				635.119,316.837 579,347.111 576.059,413.788 578.103,430.874 			"/>
			<polyline fill="none" stroke="#000000" stroke-miterlimit="10" points="579.975,446.517 582.083,464.142 602.456,526.274 
				667.783,526.274 688.156,464.142 689.902,449.557 			"/>
			<g>
				<g>
					<line fill="none" stroke="#000000" stroke-miterlimit="10" x1="698.761" y1="337.435" x2="727.609" y2="322.355"/>
					<g>
						<polygon points="727.5,322.978 722.744,321.676 723.009,320.71 728.8,322.298 						"/>
					</g>
				</g>
			</g>
			<g>
				<g>
					<line fill="none" stroke="#000000" stroke-miterlimit="10" x1="630.119" y1="305.239" x2="630.119" y2="272.36"/>
					<g>
						<polygon points="630.62,272.745 627.263,276.356 626.53,275.675 630.62,271.276 						"/>
					</g>
				</g>
			</g>
			<g>
				<g>
					<line fill="none" stroke="#000000" stroke-miterlimit="10" x1="566.704" y1="346.344" x2="537.689" y2="331.23"/>
					<g>
						<polygon points="538.261,330.963 539.914,335.609 538.97,335.944 536.959,330.285 						"/>
					</g>
				</g>
			</g>
			<g>
				<g>
					<line fill="none" stroke="#000000" stroke-miterlimit="10" x1="569.408" y1="423.925" x2="542.338" y2="441.087"/>
					<g>
						<polygon points="542.394,440.458 547.243,441.359 547.059,442.344 541.155,441.244 						"/>
					</g>
				</g>
			</g>
			<g>
				<g>
					<line fill="none" stroke="#000000" stroke-miterlimit="10" x1="706.186" y1="415.479" x2="733.255" y2="432.642"/>
					<g>
						<polygon points="732.664,432.858 731.41,428.089 732.378,427.836 733.902,433.645 						"/>
					</g>
				</g>
			</g>
			<g>
				<g>
					<line fill="none" stroke="#000000" stroke-miterlimit="10" x1="678.24" y1="531.444" x2="697.166" y2="555.401"/>
					<g>
						<polygon points="696.535,555.411 696.929,550.495 697.927,550.576 697.445,556.562 						"/>
					</g>
				</g>
			</g>
			<g>
				<g>
					<line fill="none" stroke="#000000" stroke-miterlimit="10" x1="599.846" y1="537.644" x2="580.92" y2="561.601"/>
					<g>
						<polygon points="580.765,560.989 585.639,560.235 585.791,561.226 579.855,562.141 						"/>
					</g>
				</g>
			</g>
			<g>
				<g>
					<line fill="none" stroke="#000000" stroke-miterlimit="10" x1="696.867" y1="455.271" x2="727.453" y2="443.243"/>
					<g>
						<polygon points="727.279,443.85 722.687,442.048 723.054,441.116 728.644,443.312 						"/>
					</g>
				</g>
			</g>
			<g>
				<g>
					<line fill="none" stroke="#000000" stroke-miterlimit="10" x1="569.652" y1="464.64" x2="538.84" y2="452.564"/>
					<g>
						<polygon points="539.38,452.238 541.518,456.682 540.615,457.115 538.013,451.702 						"/>
					</g>
				</g>
			</g>
			<text transform="matrix(1 0 0 1 684.1147 325.4102)" font-family="'Courier'" font-size="10">hs[0]</text>
			<text transform="matrix(1 0 0 1 596.1787 293.6377)" font-family="'Courier'" font-size="10">hs[1]</text>
			<text transform="matrix(1 0 0 1 536.728 354.5771)" font-family="'Courier'" font-size="10">hs[2]</text>
			<text transform="matrix(1 0 0 1 559.5117 440.667)" font-family="'Courier'" font-size="10">hs[3]</text>
			<text transform="matrix(1 0 0 1 551.7158 474.7803)" font-family="'Courier'" font-size="10">hs[4]</text>
			<text transform="matrix(1 0 0 1 594.7158 556.0986)" font-family="'Courier'" font-size="10">hs[5]</text>
			<text transform="matrix(1 0 0 1 688.0386 539.7656)" font-family="'Courier'" font-size="10">hs[6]</text>
			<text transform="matrix(1 0 0 1 684.1147 445.4336)" font-family="'Courier'" font-size="10">hs[7]</text>
			<text transform="matrix(1 0 0 1 721.4487 421.5557)" font-family="'Courier'" font-size="10">hs[8]</text>
		</g>
	</g>
	<g>
		<path fill="none" stroke="#000000" stroke-width="3" stroke-miterlimit="10" d="M551.408,284.255
			c-18.176-6.461-37.743-9.979-58.134-9.979c-20.525,0-40.22,3.564-58.494,10.107"/>
		<g>
			<polygon points="561.275,288.11 549.505,277.093 550.64,284.052 545.158,288.487 			"/>
		</g>
	</g>
	<g>
		<defs>
			<rect id="SVGID_1_" x="464.706" y="255.804" width="72" height="15"/>
		</defs>
		<clipPath id="SVGID_2_">
			<use xlink:href="#SVGID_1_"  overflow="visible"/>
		</clipPath>
		<path clip-path="url(#SVGID_2_)" d="M468.566,257.304c0.373-0.027,0.586-0.054,0.879-0.054c1.198,0,1.757,0.506,1.757,1.598
			c0,1.305-0.666,1.864-2.184,1.864h-0.453V257.304 M468.566,261.484h0.453c1.731,0,2.503,0.665,2.503,2.183
			c0,1.571-0.719,2.264-2.316,2.264c-0.213,0-0.373-0.026-0.639-0.053V261.484z M469.338,256.531c-0.373,0-1.384,0.026-1.624,0.026
			c-0.213,0-0.666,0-1.332-0.026l-1.198-0.026v0.559l0.56,0.027c0.666,0.079,0.719,0.159,0.719,1.491v6.71
			c0,0.506-0.08,0.719-0.293,0.852l-0.479,0.267v0.346c1.065-0.026,1.465-0.053,1.891-0.053c0.213,0,0.533,0,0.879,0.026
			c0.799,0,1.198,0.026,1.225,0.026c2.396,0,4.074-1.357,4.074-3.274c0-0.799-0.293-1.465-0.826-1.838
			c-0.532-0.373-1.038-0.506-2.236-0.586c1.251-0.452,1.677-0.665,2.157-1.092c0.346-0.319,0.559-0.878,0.559-1.438
			c0-1.358-0.932-2.023-2.822-2.023L469.338,256.531z"/>
		<path clip-path="url(#SVGID_2_)" d="M478.259,262.603h-0.08c-0.08,0-0.479,0-0.719-0.027h-0.479
			c0.053-1.49,0.426-2.076,1.278-2.076s1.225,0.586,1.251,2.076L478.259,262.603 M481.401,262.283c0-1.598-1.118-2.637-2.823-2.637
			c-0.532,0-0.905,0.106-1.305,0.347l-0.719,0.426c-0.985,0.586-1.411,1.465-1.411,2.902c0,2.37,1.198,3.647,3.408,3.647
			c0.879,0,1.411-0.159,2.37-0.665l0.346-0.719l-0.187-0.214c-0.692,0.399-1.145,0.533-1.757,0.533c-0.772,0-1.518-0.426-1.89-1.065
			c-0.24-0.426-0.32-0.772-0.346-1.464h1.943c0.879,0,1.544-0.107,2.37-0.32V262.283z"/>
		<path clip-path="url(#SVGID_2_)" d="M485.395,266.756h1.305c0.24-0.692,0.373-1.064,0.559-1.464l1.917-4.314
			c0.133-0.319,0.292-0.452,0.532-0.506l0.453-0.079v-0.56l-1.438,0.054c-0.746-0.027-0.879-0.027-1.438-0.054v0.56l0.559,0.026
			c0.213,0.026,0.346,0.133,0.346,0.267c0,0.186-0.053,0.399-0.133,0.612l-0.905,2.263c-0.133,0.32-0.293,0.64-0.533,1.198
			l-1.331-3.302c-0.133-0.372-0.187-0.612-0.187-0.771c0-0.16,0.106-0.24,0.346-0.267l0.612-0.026v-0.56l-1.944,0.054
			c-0.186,0-0.426,0-1.944-0.054v0.56l0.373,0.026c0.266,0.026,0.453,0.293,0.719,0.932L485.395,266.756"/>
		<path clip-path="url(#SVGID_2_)" d="M494.049,262.603h-0.053c-0.106,0-0.506,0-0.719-0.027h-0.479
			c0.027-1.49,0.399-2.076,1.278-2.076c0.852,0,1.198,0.586,1.225,2.076L494.049,262.603 M497.218,262.283
			c0-1.598-1.119-2.637-2.85-2.637c-0.506,0-0.905,0.106-1.305,0.347l-0.719,0.426c-0.985,0.586-1.411,1.465-1.411,2.902
			c0,2.37,1.198,3.647,3.435,3.647c0.853,0,1.412-0.159,2.37-0.665l0.319-0.719l-0.186-0.214c-0.692,0.399-1.145,0.533-1.731,0.533
			c-0.799,0-1.518-0.426-1.891-1.065c-0.24-0.426-0.346-0.772-0.373-1.464h1.97c0.852,0,1.518-0.107,2.37-0.32V262.283z"/>
		<path clip-path="url(#SVGID_2_)" d="M501.052,255.919l-1.065,0.319c-0.453,0.133-0.958,0.239-1.811,0.319v0.533l0.772,0.053
			c0.346,0.026,0.399,0.16,0.399,1.065v7.003c0,0.799-0.08,0.932-0.532,0.958l-0.533,0.027v0.559l1.944-0.053
			c0.293,0,1.012,0.026,2.023,0.053v-0.559l-0.532-0.027c-0.479-0.026-0.533-0.159-0.533-0.958v-9.213L501.052,255.919"/>
		<path clip-path="url(#SVGID_2_)" d="M506.777,257.41c0.825-0.026,1.358-0.054,2.157-0.054c0.826,0,1.465,0.134,1.491,0.293
			l0.106,1.118h0.533l0.213-2.104l-0.08-0.106c-0.559-0.053-0.852-0.08-1.438-0.08c-0.346,0-0.772,0.027-1.598,0.054
			c-1.092,0.026-1.518,0.026-1.944,0.026c-0.533,0-1.172-0.026-2.823-0.053v0.559l0.559,0.027c0.666,0.079,0.719,0.159,0.719,1.491
			v6.71c0,0.506-0.08,0.719-0.32,0.852l-0.479,0.267v0.346c1.491-0.053,1.491-0.053,1.837-0.053h0.506
			c1.518,0.053,2.104,0.053,2.875,0.053c0.772,0,1.251,0,2.104-0.053l0.08-0.106l0.16-2.37h-0.586l-0.346,1.411
			c0,0,0,0.026-0.027,0.026c-0.479,0.16-0.905,0.214-1.731,0.214c-0.612,0-1.198,0-1.97-0.054v-3.994
			c0.426-0.026,0.666-0.026,1.012-0.026h0.985c0.559,0,0.799,0.159,0.852,0.532l0.08,0.746h0.612l-0.053-1.598
			c0-0.16,0-0.187,0.053-1.598h-0.612l-0.08,0.852c-0.027,0.239-0.24,0.293-0.852,0.293h-0.985c-0.506,0-0.719,0-1.012-0.026V257.41
			"/>
		<path clip-path="url(#SVGID_2_)" d="M517.694,264.307c0,0.665-0.719,1.225-1.544,1.225c-1.065,0-1.731-1.038-1.731-2.636
			c0-1.518,0.533-2.29,1.598-2.29c0.639,0,1.171,0.293,1.678,0.958V264.307 M519.505,255.999l-0.106-0.08l-1.092,0.319
			c-0.426,0.133-0.932,0.239-1.811,0.319v0.533l0.798,0.053c0.32,0.026,0.4,0.16,0.4,1.065v1.811l-0.32-0.106
			c-0.399-0.187-0.799-0.267-1.198-0.267c-0.479,0-0.905,0.133-1.305,0.399l-1.092,0.692c-0.852,0.586-1.251,1.438-1.251,2.716
			c0,2.131,1.118,3.515,2.876,3.515c0.346,0,0.585-0.079,0.719-0.186l1.571-1.278l-0.08,1.118l0.08,0.133
			c0.878-0.026,1.171-0.053,1.331-0.053c0.133,0,0.399,0.026,0.826,0.026c0.106,0,0.373,0,0.692,0.026v-0.559l-0.479-0.027
			c-0.479-0.026-0.559-0.159-0.559-0.958V255.999z"/>
		<path clip-path="url(#SVGID_2_)" d="M525.07,266.916c1.837,0,2.29,0.239,2.29,1.198c0,1.038-1.012,1.811-2.343,1.811
			s-2.21-0.612-2.21-1.544c0-0.56,0.319-1.065,0.772-1.278C523.818,266.996,524.351,266.916,525.07,266.916 M524.777,260.393
			c0.799,0,1.225,0.639,1.225,1.837c0,1.065-0.399,1.624-1.198,1.624c-0.772,0-1.251-0.692-1.251-1.811
			C523.552,260.978,523.978,260.393,524.777,260.393z M528.931,261.191l0.08-0.959c-0.612,0.054-0.905,0.08-1.225,0.08
			c-0.133,0-0.32,0-0.56-0.026c-0.612-0.453-1.305-0.64-2.263-0.64c-1.917,0-3.249,1.118-3.249,2.689
			c0,0.56,0.187,1.039,0.559,1.438c0.267,0.293,0.506,0.427,1.012,0.613l-1.065,0.799c-0.133,0.106-0.24,0.426-0.24,0.719
			c0,0.532,0.267,0.825,1.012,1.012l-1.198,0.719c-0.24,0.133-0.399,0.532-0.399,0.932c0,1.306,1.251,2.131,3.222,2.131
			c2.636,0,4.394-1.385,4.394-3.355c0-1.278-0.692-1.863-2.21-1.863h-0.346c-1.491,0.053-2.024,0.053-2.21,0.053
			c-0.453,0-0.692-0.16-0.692-0.452c0-0.214,0.133-0.399,0.426-0.586c0.267,0.026,0.426,0.026,0.613,0.026
			c1.038,0,1.997-0.319,2.609-0.959c0.453-0.452,0.639-0.985,0.639-1.73c0-0.239,0-0.426-0.053-0.692L528.931,261.191z"/>
		<path clip-path="url(#SVGID_2_)" d="M533.058,262.603h-0.08c-0.08,0-0.479,0-0.719-0.027h-0.479
			c0.054-1.49,0.426-2.076,1.278-2.076c0.852,0,1.225,0.586,1.252,2.076L533.058,262.603 M536.2,262.283
			c0-1.598-1.119-2.637-2.823-2.637c-0.532,0-0.905,0.106-1.305,0.347l-0.719,0.426c-0.985,0.586-1.411,1.465-1.411,2.902
			c0,2.37,1.198,3.647,3.435,3.647c0.852,0,1.385-0.159,2.344-0.665l0.346-0.719l-0.187-0.214c-0.692,0.399-1.145,0.533-1.757,0.533
			c-0.772,0-1.518-0.426-1.89-1.065c-0.24-0.426-0.32-0.772-0.346-1.464h1.943c0.879,0,1.545-0.107,2.37-0.32V262.283z"/>
	</g>
</g>
<g>
	<g>
		<polygon opacity="0.2" fill="#1B1F8A" points="593.591,196.086 541.416,130.659 560.037,49.076 635.432,12.768 710.827,49.076 
			729.447,130.659 677.273,196.086 		"/>
		<polygon opacity="0.2" fill="#1B1F8A" points="593.591,196.086 541.416,130.659 560.037,49.076 635.432,12.768 710.827,49.076 
			729.447,130.659 677.273,196.086 		"/>
		<polygon fill="none" stroke="#000000" stroke-miterlimit="10" points="593.591,196.086 541.416,130.659 560.037,49.076 
			635.432,12.768 710.827,49.076 729.447,130.659 677.273,196.086 		"/>
	</g>
	<g>
		<polygon opacity="0.2" fill="#1B1F8A" points="845.375,196.086 793.2,130.659 811.821,49.076 887.216,12.768 962.612,49.076 
			981.231,130.659 929.057,196.086 		"/>
		<polyline fill="none" stroke="#000000" stroke-miterlimit="10" points="807.424,68.336 811.821,49.076 887.216,12.768 
			962.612,49.076 975.729,106.554 		"/>
		<polyline fill="none" stroke="#000000" stroke-miterlimit="10" points="799.314,138.326 793.2,130.659 804.64,80.537 		"/>
		<polyline fill="none" stroke="#000000" stroke-miterlimit="10" points="944.603,176.591 929.057,196.086 845.375,196.086 
			807.167,148.173 		"/>
		<polyline fill="none" stroke="#000000" stroke-miterlimit="10" points="978.533,118.843 981.231,130.659 954.599,164.056 		"/>
		<polygon opacity="0.2" fill="#1B1F8A" points="861.397,160.988 829.2,120.614 840.691,70.271 887.216,47.866 933.742,70.271 
			945.231,120.614 913.036,160.988 		"/>
		<polygon fill="none" stroke="#000000" stroke-miterlimit="10" points="861.397,160.988 829.2,120.614 840.691,70.271 
			887.216,47.866 933.742,70.271 945.231,120.614 913.036,160.988 		"/>
		<line fill="none" stroke="#000000" stroke-miterlimit="10" x1="933.742" y1="70.271" x2="962.612" y2="49.076"/>
		<line fill="none" stroke="#000000" stroke-miterlimit="10" x1="887.216" y1="47.866" x2="887.216" y2="12.768"/>
		<line fill="none" stroke="#000000" stroke-miterlimit="10" x1="840.691" y1="70.271" x2="811.821" y2="49.076"/>
		<line fill="none" stroke="#000000" stroke-miterlimit="10" x1="829.2" y1="120.614" x2="793.2" y2="130.659"/>
		<line fill="none" stroke="#000000" stroke-miterlimit="10" x1="861.397" y1="160.988" x2="845.375" y2="196.086"/>
		<line fill="none" stroke="#000000" stroke-miterlimit="10" x1="913.036" y1="160.988" x2="929.057" y2="196.086"/>
		<line fill="none" stroke="#000000" stroke-miterlimit="10" x1="945.231" y1="120.614" x2="981.231" y2="130.659"/>
		<line fill="none" stroke="#000000" stroke-miterlimit="10" x1="933.742" y1="70.271" x2="962.612" y2="49.076"/>
		<line fill="none" stroke="#000000" stroke-miterlimit="10" x1="887.216" y1="47.866" x2="887.216" y2="12.768"/>
		<line fill="none" stroke="#000000" stroke-miterlimit="10" x1="840.691" y1="70.271" x2="811.821" y2="49.076"/>
		<line fill="none" stroke="#000000" stroke-miterlimit="10" x1="829.2" y1="120.614" x2="793.2" y2="130.659"/>
		<line fill="none" stroke="#000000" stroke-miterlimit="10" x1="861.397" y1="160.988" x2="845.375" y2="196.086"/>
		<line fill="none" stroke="#000000" stroke-miterlimit="10" x1="913.036" y1="160.988" x2="929.057" y2="196.086"/>
		<line fill="none" stroke="#000000" stroke-miterlimit="10" x1="945.231" y1="120.614" x2="981.231" y2="130.659"/>
		<g>
			<g>
				<line fill="none" stroke="#000000" stroke-miterlimit="10" x1="933.741" y1="64.383" x2="952.47" y2="50.634"/>
				<g>
					<polygon points="952.458,51.265 947.559,50.696 947.675,49.702 953.641,50.396 					"/>
				</g>
			</g>
		</g>
		<g>
			<g>
				<line fill="none" stroke="#000000" stroke-miterlimit="10" x1="882.431" y1="44.537" x2="882.431" y2="21.79"/>
				<g>
					<polygon points="882.932,22.174 879.575,25.786 878.842,25.104 882.932,20.706 					"/>
				</g>
			</g>
		</g>
		<g>
			<g>
				<line fill="none" stroke="#000000" stroke-miterlimit="10" x1="835.082" y1="72.202" x2="816.352" y2="58.452"/>
				<g>
					<polygon points="816.958,58.275 817.882,63.12 816.899,63.306 815.775,57.407 					"/>
				</g>
			</g>
		</g>
		<g>
			<g>
				<line fill="none" stroke="#000000" stroke-miterlimit="10" x1="827.07" y1="126.343" x2="803.67" y2="132.872"/>
				<g>
					<polygon points="803.906,132.286 808.288,134.549 807.827,135.438 802.492,132.681 					"/>
				</g>
			</g>
		</g>
		<g>
			<g>
				<line fill="none" stroke="#000000" stroke-miterlimit="10" x1="864.318" y1="166.493" x2="853.889" y2="189.339"/>
				<g>
					<polygon points="853.592,188.782 858.147,186.89 858.53,187.815 852.983,190.117 					"/>
				</g>
			</g>
		</g>
		<g>
			<g>
				<line fill="none" stroke="#000000" stroke-miterlimit="10" x1="919.07" y1="162.466" x2="929.498" y2="185.311"/>
				<g>
					<polygon points="928.882,185.17 930.437,180.489 931.386,180.807 929.492,186.505 					"/>
				</g>
			</g>
		</g>
		<g>
			<g>
				<line fill="none" stroke="#000000" stroke-miterlimit="10" x1="950.097" y1="116.999" x2="973.497" y2="123.528"/>
				<g>
					<polygon points="972.992,123.907 970.416,119.703 971.269,119.181 974.406,124.302 					"/>
				</g>
			</g>
		</g>
		<text transform="matrix(1 0 0 1 850.0415 39.8096)" font-family="'Courier'" font-size="10">hs[0]</text>
		<text transform="matrix(1 0 0 1 799.7085 76.8096)" font-family="'Courier'" font-size="10">hs[1]</text>
		<text transform="matrix(1 0 0 1 800.7075 145.1436)" font-family="'Courier'" font-size="10">hs[2]</text>
		<text transform="matrix(1 0 0 1 861.397 183.1416)" font-family="'Courier'" font-size="10">hs[3]</text>
		<text transform="matrix(1 0 0 1 926.4302 172.6592)" font-family="'Courier'" font-size="10">hs[4]</text>
		<text transform="matrix(1 0 0 1 959.4302 115.3818)" font-family="'Courier'" font-size="10">hs[5]</text>
		<text transform="matrix(1 0 0 1 914.0356 52.7158)" font-family="'Courier'" font-size="10">hs[6]</text>
	</g>
	<g>
		<path fill="none" stroke="#000000" stroke-width="3" stroke-miterlimit="10" d="M812.389,30.19
			c-18.176-6.461-37.743-9.979-58.134-9.979c-20.525,0-40.22,3.564-58.494,10.107"/>
		<g>
			<polygon points="822.256,34.045 810.486,23.028 811.621,29.987 806.139,34.422 			"/>
		</g>
	</g>
	<g>
		<defs>
			<rect id="SVGID_3_" x="717.806" width="68" height="12"/>
		</defs>
		<clipPath id="SVGID_4_">
			<use xlink:href="#SVGID_3_"  overflow="visible"/>
		</clipPath>
		<path clip-path="url(#SVGID_4_)" d="M721.667,1.509c0.373-0.054,0.586-0.054,0.879-0.054c1.198,0,1.758,0.479,1.758,1.598
			c0,1.305-0.666,1.864-2.184,1.864h-0.453V1.509 M721.667,5.688h0.453c1.73,0,2.502,0.666,2.502,2.184
			c0,1.571-0.719,2.237-2.316,2.237c-0.213,0-0.373,0-0.639-0.054V5.688z M722.439,0.71c-0.372,0.026-1.384,0.026-1.623,0.026
			c-0.213,0-0.666,0-1.332,0l-1.198-0.026v0.532l0.56,0.053c0.666,0.054,0.719,0.16,0.719,1.465v6.71
			c0,0.506-0.08,0.746-0.293,0.853l-0.479,0.266v0.347c1.065-0.026,1.465-0.026,1.891-0.026c0.214,0,0.532,0,0.879,0
			c0.799,0.026,1.198,0.026,1.225,0.026c2.396,0,4.074-1.331,4.074-3.275c0-0.799-0.293-1.438-0.825-1.811
			c-0.533-0.373-1.039-0.532-2.236-0.586c1.251-0.452,1.677-0.666,2.156-1.092c0.346-0.346,0.559-0.879,0.559-1.438
			c0-1.385-0.932-2.023-2.822-2.023H722.439z"/>
		<path clip-path="url(#SVGID_4_)" d="M731.36,6.808h-0.08c-0.079,0-0.479,0-0.719-0.027l-0.479-0.026
			c0.053-1.465,0.426-2.077,1.278-2.077s1.226,0.612,1.251,2.077L731.36,6.808 M734.501,6.487c0-1.598-1.117-2.636-2.822-2.636
			c-0.532,0-0.905,0.106-1.305,0.346l-0.719,0.399c-0.985,0.586-1.411,1.491-1.411,2.93c0,2.37,1.198,3.621,3.408,3.621
			c0.879,0,1.411-0.133,2.37-0.639l0.346-0.72l-0.187-0.213c-0.692,0.373-1.145,0.506-1.757,0.506c-0.772,0-1.518-0.399-1.891-1.064
			c-0.24-0.399-0.32-0.746-0.346-1.465h1.943c0.879,0,1.544-0.08,2.369-0.293V6.487z"/>
		<path clip-path="url(#SVGID_4_)" d="M738.496,10.935h1.305c0.24-0.666,0.373-1.038,0.56-1.438l1.917-4.314
			c0.133-0.346,0.293-0.479,0.533-0.506l0.452-0.08V4.012l-1.438,0.053c-0.745,0-0.879,0-1.438-0.053v0.585l0.56,0.027
			c0.213,0.026,0.347,0.106,0.347,0.266c0,0.16-0.054,0.373-0.134,0.613l-0.905,2.263c-0.133,0.319-0.293,0.64-0.533,1.198
			l-1.33-3.328c-0.134-0.373-0.188-0.586-0.188-0.746c0-0.159,0.107-0.239,0.347-0.266l0.612-0.027V4.012l-1.943,0.053
			c-0.187,0-0.426,0-1.944-0.053v0.585l0.373,0.027c0.267,0.026,0.452,0.293,0.719,0.932L738.496,10.935"/>
		<path clip-path="url(#SVGID_4_)" d="M747.15,6.808h-0.053c-0.107,0-0.506,0-0.719-0.027l-0.48-0.026
			c0.027-1.465,0.4-2.077,1.279-2.077c0.852,0,1.197,0.612,1.225,2.077L747.15,6.808 M750.319,6.487c0-1.598-1.118-2.636-2.85-2.636
			c-0.506,0-0.905,0.106-1.305,0.346l-0.719,0.399c-0.985,0.586-1.411,1.491-1.411,2.93c0,2.37,1.198,3.621,3.435,3.621
			c0.853,0,1.411-0.133,2.37-0.639l0.319-0.72l-0.187-0.213c-0.691,0.373-1.145,0.506-1.73,0.506c-0.799,0-1.518-0.399-1.891-1.064
			c-0.24-0.399-0.346-0.746-0.373-1.465h1.971c0.852,0,1.518-0.08,2.37-0.293V6.487z"/>
		<path clip-path="url(#SVGID_4_)" d="M754.153,0.124l-1.065,0.319c-0.452,0.133-0.958,0.239-1.811,0.319v0.532l0.772,0.054
			c0.347,0,0.399,0.16,0.399,1.038V9.39c0,0.826-0.08,0.933-0.532,0.959l-0.532,0.054v0.532l1.943-0.026
			c0.293,0,1.012,0,2.023,0.026v-0.532l-0.532-0.054c-0.479-0.026-0.532-0.133-0.532-0.959V0.203L754.153,0.124"/>
		<path clip-path="url(#SVGID_4_)" d="M759.718,1.615c0.719-0.027,1.225-0.054,1.73-0.054c1.012,0,1.65,0.106,1.65,0.293
			l0.134,1.118h0.532l0.213-2.13l-0.08-0.106c-0.585-0.026-0.852-0.054-1.438-0.054c-0.346,0-0.904,0.027-2.104,0.054
			c-0.691,0-1.064,0-1.357,0c-0.453,0-0.453,0-2.663-0.026v0.532l0.532,0.053c0.693,0.054,0.719,0.16,0.719,1.465v6.124
			c0,1.332,0,1.358-0.719,1.412l-0.532,0.053v0.586c1.811-0.026,1.811-0.026,2.316-0.026c0.479,0,0.479,0,2.477,0.026v-0.586
			l-0.692-0.053c-0.692-0.027-0.719-0.107-0.719-1.412V6.088c0.399-0.053,0.666-0.053,0.984-0.053h0.773
			c0.559,0,0.799,0.159,0.852,0.559l0.106,0.746h0.586l-0.054-1.624c0-0.16,0-0.373,0.054-1.545h-0.586l-0.106,0.799
			c-0.027,0.24-0.213,0.319-0.852,0.319h-0.773c-0.479,0-0.691,0-0.984-0.026V1.615"/>
		<path clip-path="url(#SVGID_4_)" d="M768.691,9.177c-0.292,0.399-0.852,0.666-1.305,0.666c-0.479,0-0.745-0.346-0.745-0.932
			c0-0.746,0.293-1.039,1.358-1.332l0.691-0.159V9.177 M768.691,9.896l-0.079,0.932l0.079,0.106
			c0.933-0.026,1.172-0.026,1.359-0.026c0.186,0,0.426,0,1.305,0.026v-0.532l-0.427-0.054c-0.347-0.053-0.426-0.213-0.426-0.905
			V9.124c-0.026-0.479-0.026-0.905-0.026-1.278c0-0.399,0-0.879,0.026-1.438c0-0.187,0-0.32,0-0.427c0-1.331-0.879-2.13-2.396-2.13
			c-0.64,0-1.251,0.16-1.812,0.506l-0.799,0.479v1.038l0.453,0.106l0.346-0.745c0.027-0.106,0.453-0.213,0.853-0.213
			c1.013,0,1.491,0.532,1.544,1.757l-1.33,0.267c-1.891,0.399-2.557,0.985-2.557,2.236c0,1.226,0.612,1.864,1.758,1.864
			c0.318,0,0.585-0.054,0.719-0.16L768.691,9.896z"/>
		<path clip-path="url(#SVGID_4_)" d="M777.453,6.461c0.079-0.958,0.159-1.465,0.293-2.13l-0.107-0.187
			c-0.691-0.239-1.012-0.293-1.544-0.293c-0.56,0-0.985,0.106-1.331,0.319l-0.799,0.453c-1.332,0.799-1.811,1.544-1.811,2.849
			c0,2.37,1.197,3.675,3.328,3.675c0.745,0,1.305-0.133,2.023-0.506l0.293-0.692l-0.133-0.133c-0.506,0.187-0.826,0.266-1.279,0.266
			c-1.464,0-2.369-1.171-2.369-3.089c0-1.357,0.506-2.076,1.465-2.076c0.666,0,1.277,0.293,1.331,0.639l0.106,0.905H777.453"/>
		<path clip-path="url(#SVGID_4_)" d="M782.058,6.808h-0.08c-0.079,0-0.479,0-0.719-0.027l-0.479-0.026
			c0.053-1.465,0.426-2.077,1.277-2.077c0.853,0,1.225,0.612,1.252,2.077L782.058,6.808 M785.201,6.487
			c0-1.598-1.118-2.636-2.822-2.636c-0.533,0-0.906,0.106-1.305,0.346l-0.719,0.399c-0.986,0.586-1.412,1.491-1.412,2.93
			c0,2.37,1.199,3.621,3.436,3.621c0.852,0,1.385-0.133,2.343-0.639l0.347-0.72l-0.188-0.213c-0.691,0.373-1.145,0.506-1.757,0.506
			c-0.772,0-1.518-0.399-1.891-1.064c-0.239-0.399-0.319-0.746-0.346-1.465h1.943c0.879,0,1.544-0.08,2.37-0.293V6.487z"/>
	</g>
</g>
<g>
	<g>
		<polygon opacity="0.2" fill="#1B1F8A" points="37.227,196.219 0.588,83.457 96.508,13.768 192.427,83.457 155.789,196.219 		"/>
		<polygon fill="none" stroke="#000000" stroke-miterlimit="10" points="37.227,196.219 0.588,83.457 96.508,13.768 192.427,83.457 
			155.789,196.219 		"/>
		<line fill="none" stroke="#000000" stroke-miterlimit="10" x1="96.508" y1="114.834" x2="192.427" y2="83.457"/>
		<line fill="none" stroke="#000000" stroke-miterlimit="10" x1="96.508" y1="114.834" x2="96.508" y2="13.768"/>
		<line fill="none" stroke="#000000" stroke-miterlimit="10" x1="96.508" y1="114.834" x2="0.588" y2="83.457"/>
		<line fill="none" stroke="#000000" stroke-miterlimit="10" x1="96.508" y1="114.834" x2="37.227" y2="196.219"/>
		<line fill="none" stroke="#000000" stroke-miterlimit="10" x1="96.508" y1="114.834" x2="155.789" y2="196.219"/>
		<circle cx="96.508" cy="114.834" r="5.603"/>
	</g>
	<g>
		<polygon opacity="0.2" fill="#1B1F8A" points="352.654,59.247 299.898,97.577 320.049,159.596 385.259,159.596 405.409,97.577 		
			"/>
		<polygon opacity="0.2" fill="#1B1F8A" points="293.372,196.219 256.733,83.457 352.653,13.768 448.572,83.457 411.935,196.219 		
			"/>
		<polyline fill="none" stroke="#000000" stroke-miterlimit="10" points="419.996,171.408 411.935,196.219 293.372,196.219 
			266.851,114.597 		"/>
		<polyline fill="none" stroke="#000000" stroke-miterlimit="10" points="262.357,100.769 256.733,83.457 352.653,13.768 
			448.572,83.457 424.488,157.581 		"/>
		<polygon fill="none" stroke="#000000" stroke-miterlimit="10" points="320.049,159.596 299.898,97.577 352.654,59.247 
			405.409,97.577 385.259,159.596 		"/>
		<line fill="none" stroke="#000000" stroke-miterlimit="10" x1="405.409" y1="97.577" x2="448.572" y2="83.457"/>
		<line fill="none" stroke="#000000" stroke-miterlimit="10" x1="352.654" y1="59.247" x2="352.654" y2="13.768"/>
		<line fill="none" stroke="#000000" stroke-miterlimit="10" x1="299.898" y1="97.577" x2="256.733" y2="83.457"/>
		<line fill="none" stroke="#000000" stroke-miterlimit="10" x1="320.049" y1="159.596" x2="293.372" y2="196.219"/>
		<line fill="none" stroke="#000000" stroke-miterlimit="10" x1="385.259" y1="159.596" x2="411.935" y2="196.219"/>
		<line fill="none" stroke="#000000" stroke-miterlimit="10" x1="405.409" y1="97.577" x2="448.572" y2="83.457"/>
		<line fill="none" stroke="#000000" stroke-miterlimit="10" x1="352.654" y1="59.247" x2="352.654" y2="13.768"/>
		<line fill="none" stroke="#000000" stroke-miterlimit="10" x1="299.898" y1="97.577" x2="256.733" y2="83.457"/>
		<line fill="none" stroke="#000000" stroke-miterlimit="10" x1="320.049" y1="159.596" x2="293.372" y2="196.219"/>
		<line fill="none" stroke="#000000" stroke-miterlimit="10" x1="385.259" y1="159.596" x2="411.935" y2="196.219"/>
		<g>
			<g>
				<line fill="none" stroke="#000000" stroke-miterlimit="10" x1="408.562" y1="91.487" x2="436.84" y2="82.236"/>
				<g>
					<polygon points="436.631,82.832 432.153,80.764 432.575,79.855 438.025,82.376 					"/>
				</g>
			</g>
		</g>
		<g>
			<g>
				<line fill="none" stroke="#000000" stroke-miterlimit="10" x1="347.769" y1="54.354" x2="347.769" y2="24.558"/>
				<g>
					<polygon points="348.27,24.941 344.912,28.554 344.18,27.871 348.27,23.474 					"/>
				</g>
			</g>
		</g>
		<g>
			<g>
				<line fill="none" stroke="#000000" stroke-miterlimit="10" x1="293.656" y1="100.706" x2="265.378" y2="91.455"/>
				<g>
					<polygon points="265.898,91.099 268.288,95.412 267.411,95.896 264.504,90.642 					"/>
				</g>
			</g>
		</g>
		<g>
			<g>
				<line fill="none" stroke="#000000" stroke-miterlimit="10" x1="321.029" y1="166.494" x2="303.555" y2="190.485"/>
				<g>
					<polygon points="303.375,189.88 308.216,188.937 308.406,189.92 302.511,191.066 					"/>
				</g>
			</g>
		</g>
		<g>
			<g>
				<line fill="none" stroke="#000000" stroke-miterlimit="10" x1="392.047" y1="160.782" x2="409.521" y2="184.774"/>
				<g>
					<polygon points="408.891,184.759 409.479,179.862 410.472,179.983 409.755,185.945 					"/>
				</g>
			</g>
		</g>
		<text transform="matrix(1 0 0 1 315.4629 51.2314)" font-family="'Courier'" font-size="10">hs[0]</text>
		<text transform="matrix(1 0 0 1 258.7842 109.4365)" font-family="'Courier'" font-size="10">hs[1]</text>
		<text transform="matrix(1 0 0 1 317.4736 184.4365)" font-family="'Courier'" font-size="10">hs[2]</text>
		<text transform="matrix(1 0 0 1 402.5723 167.4365)" font-family="'Courier'" font-size="10">hs[3]</text>
		<text transform="matrix(1 0 0 1 395.0469 80.8994)" font-family="'Courier'" font-size="10">hs[4]</text>
	</g>
	<g>
		<path fill="none" stroke="#000000" stroke-width="3" stroke-miterlimit="10" d="M276.466,48.104
			c-18.176-6.461-37.743-9.979-58.134-9.979c-20.525,0-40.22,3.564-58.494,10.107"/>
		<g>
			<polygon points="286.333,51.96 274.562,40.942 275.697,47.901 270.216,52.337 			"/>
		</g>
	</g>
	<g>
		<defs>
			<rect id="SVGID_5_" x="175.883" y="17.422" width="82" height="12"/>
		</defs>
		<clipPath id="SVGID_6_">
			<use xlink:href="#SVGID_5_"  overflow="visible"/>
		</clipPath>
		<path clip-path="url(#SVGID_6_)" d="M179.744,18.931c0.373-0.054,0.586-0.054,0.879-0.054c1.198,0,1.758,0.479,1.758,1.598
			c0,1.305-0.666,1.864-2.184,1.864h-0.453V18.931 M179.744,23.11h0.453c1.73,0,2.502,0.666,2.502,2.184
			c0,1.571-0.719,2.237-2.316,2.237c-0.213,0-0.373,0-0.639-0.054V23.11z M180.516,18.132c-0.372,0.026-1.384,0.026-1.623,0.026
			c-0.213,0-0.666,0-1.332,0l-1.198-0.026v0.532l0.56,0.053c0.666,0.054,0.719,0.16,0.719,1.465v6.71
			c0,0.506-0.08,0.746-0.293,0.853l-0.479,0.266v0.347c1.065-0.026,1.465-0.026,1.891-0.026c0.214,0,0.532,0,0.879,0
			c0.799,0.026,1.198,0.026,1.225,0.026c2.396,0,4.074-1.331,4.074-3.275c0-0.799-0.293-1.438-0.825-1.811
			c-0.533-0.373-1.039-0.532-2.236-0.586c1.251-0.452,1.677-0.666,2.156-1.092c0.346-0.346,0.559-0.879,0.559-1.438
			c0-1.385-0.932-2.023-2.822-2.023H180.516z"/>
		<path clip-path="url(#SVGID_6_)" d="M189.437,24.229h-0.08c-0.079,0-0.479,0-0.719-0.027l-0.479-0.026
			c0.053-1.465,0.426-2.077,1.278-2.077s1.226,0.612,1.251,2.077L189.437,24.229 M192.578,23.909c0-1.598-1.117-2.636-2.822-2.636
			c-0.532,0-0.905,0.106-1.305,0.346l-0.719,0.399c-0.985,0.586-1.411,1.491-1.411,2.93c0,2.37,1.198,3.621,3.408,3.621
			c0.879,0,1.411-0.133,2.37-0.639l0.346-0.72l-0.187-0.213c-0.692,0.373-1.145,0.506-1.757,0.506c-0.772,0-1.518-0.399-1.891-1.064
			c-0.24-0.399-0.32-0.746-0.346-1.465h1.943c0.879,0,1.544-0.08,2.369-0.293V23.909z"/>
		<path clip-path="url(#SVGID_6_)" d="M196.572,28.356h1.305c0.24-0.666,0.373-1.038,0.56-1.438l1.917-4.314
			c0.133-0.346,0.293-0.479,0.533-0.506l0.452-0.08v-0.585l-1.438,0.053c-0.745,0-0.879,0-1.438-0.053v0.585l0.56,0.027
			c0.213,0.026,0.347,0.106,0.347,0.266c0,0.16-0.054,0.373-0.134,0.613l-0.905,2.263c-0.133,0.319-0.293,0.64-0.533,1.198
			l-1.33-3.328c-0.134-0.373-0.188-0.586-0.188-0.746c0-0.159,0.107-0.239,0.347-0.266l0.612-0.027v-0.585l-1.943,0.053
			c-0.187,0-0.426,0-1.944-0.053v0.585l0.373,0.027c0.267,0.026,0.452,0.293,0.719,0.932L196.572,28.356"/>
		<path clip-path="url(#SVGID_6_)" d="M205.227,24.229h-0.053c-0.107,0-0.506,0-0.719-0.027l-0.48-0.026
			c0.027-1.465,0.4-2.077,1.279-2.077c0.852,0,1.197,0.612,1.225,2.077L205.227,24.229 M208.396,23.909
			c0-1.598-1.118-2.636-2.85-2.636c-0.506,0-0.905,0.106-1.305,0.346l-0.719,0.399c-0.985,0.586-1.411,1.491-1.411,2.93
			c0,2.37,1.198,3.621,3.435,3.621c0.853,0,1.411-0.133,2.37-0.639l0.319-0.72l-0.187-0.213c-0.691,0.373-1.145,0.506-1.73,0.506
			c-0.799,0-1.518-0.399-1.891-1.064c-0.24-0.399-0.346-0.746-0.373-1.465h1.971c0.852,0,1.518-0.08,2.37-0.293V23.909z"/>
		<path clip-path="url(#SVGID_6_)" d="M212.229,17.546l-1.065,0.319c-0.452,0.133-0.958,0.239-1.811,0.319v0.532l0.772,0.054
			c0.347,0,0.399,0.16,0.399,1.038v7.003c0,0.826-0.08,0.933-0.532,0.959l-0.532,0.054v0.532l1.943-0.026
			c0.293,0,1.012,0,2.023,0.026v-0.532l-0.532-0.054c-0.479-0.026-0.532-0.133-0.532-0.959v-9.187L212.229,17.546"/>
		<path clip-path="url(#SVGID_6_)" d="M219.072,18.664v-0.532c-0.639,0-1.197,0-1.384,0.026c-0.507,0-0.853,0-1.038,0
			c-0.213,0-0.213,0-2.371-0.026v0.532l0.613,0.053c0.373,0.054,0.612,0.32,0.932,1.092l3.568,8.548h1.145
			c0.16-0.373,0.213-0.532,0.293-0.719c0.08-0.24,0.133-0.399,0.16-0.453c0.026-0.053,0.053-0.159,0.133-0.293l3.115-7.455
			c0.187-0.479,0.373-0.692,0.693-0.72l0.479-0.053v-0.532c-1.598,0.026-1.598,0.026-1.73,0.026c-0.16,0-0.426,0-0.853,0
			c-0.106-0.026-0.479-0.026-0.878-0.026v0.532l0.691,0.053c0.347,0.027,0.56,0.16,0.56,0.399c0,0.214-0.159,0.692-0.479,1.465
			l-2.13,5.299l-2.343-5.805c-0.293-0.745-0.32-0.799-0.32-1.065c0-0.133,0.187-0.266,0.399-0.293L219.072,18.664"/>
		<path clip-path="url(#SVGID_6_)" d="M227.62,24.229h-0.054c-0.079,0-0.506,0-0.719-0.027l-0.479-0.026
			c0.053-1.465,0.398-2.077,1.277-2.077c0.853,0,1.199,0.612,1.226,2.077L227.62,24.229 M230.789,23.909
			c0-1.598-1.118-2.636-2.822-2.636c-0.533,0-0.932,0.106-1.332,0.346l-0.691,0.399c-0.986,0.586-1.438,1.491-1.438,2.93
			c0,2.37,1.198,3.621,3.435,3.621c0.853,0,1.412-0.133,2.37-0.639l0.319-0.72l-0.16-0.213c-0.719,0.373-1.171,0.506-1.757,0.506
			c-0.772,0-1.518-0.399-1.891-1.064c-0.239-0.399-0.319-0.746-0.372-1.465h1.97c0.853,0,1.519-0.08,2.37-0.293V23.909z"/>
		<path clip-path="url(#SVGID_6_)" d="M234.57,21.273l-1.039,0.319c-0.479,0.16-0.745,0.187-1.703,0.319v0.533l0.691,0.053
			c0.32,0.027,0.373,0.16,0.373,1.039v3.274c0,0.826-0.08,0.933-0.533,0.959l-0.531,0.054v0.532l1.943-0.026
			c0.186,0,0.239,0,2.264,0.026v-0.532l-0.586-0.054c-0.64-0.026-0.719-0.106-0.719-0.959v-2.955c0-0.453,0.611-0.959,1.197-0.959
			c0.373,0,0.639,0.187,0.853,0.533l0.347-0.134l0.079-1.943c-0.159-0.054-0.347-0.08-0.56-0.08c-0.398,0-0.691,0.16-1.277,0.799
			l-0.639,0.719v-1.438L234.57,21.273"/>
		<path clip-path="url(#SVGID_6_)" d="M242.025,27.425l-0.105-0.293c-0.293,0.159-0.453,0.213-0.693,0.213
			c-0.691,0-0.932-0.24-0.932-0.985v-3.568h1.598l0.106-0.958l-1.704,0.079v-0.878c0-0.772,0.053-1.278,0.187-2.024l-0.213-0.159
			c-0.612,0.293-1.065,0.479-1.837,0.745c0.053,0.799,0.079,1.065,0.079,1.385v0.905l-0.985,0.64v0.319l0.932-0.054v3.888
			c0,1.331,0.561,1.891,1.865,1.891c0.479,0,0.852-0.106,0.984-0.267L242.025,27.425"/>
		<path clip-path="url(#SVGID_6_)" d="M245.939,24.229h-0.08c-0.079,0-0.479,0-0.718-0.027l-0.479-0.026
			c0.053-1.465,0.398-2.077,1.277-2.077c0.853,0,1.225,0.612,1.252,2.077L245.939,24.229 M249.082,23.909
			c0-1.598-1.119-2.636-2.822-2.636c-0.533,0-0.906,0.106-1.332,0.346l-0.692,0.399c-0.985,0.586-1.411,1.491-1.411,2.93
			c0,2.37,1.199,3.621,3.408,3.621c0.853,0,1.412-0.133,2.371-0.639l0.346-0.72l-0.187-0.213c-0.72,0.373-1.146,0.506-1.757,0.506
			c-0.773,0-1.519-0.399-1.891-1.064c-0.24-0.399-0.32-0.746-0.347-1.465h1.943c0.853,0,1.545-0.08,2.37-0.293V23.909z"/>
		<path clip-path="url(#SVGID_6_)" d="M252.677,25.188l-1.651,2.077c-0.292,0.373-0.559,0.506-1.038,0.56v0.506h1.385
			c0.426-0.692,0.586-0.933,0.772-1.172l0.958-1.331l1.491,2.529l1.172-0.026c0.586,0,0.719,0,1.145,0.026v-0.532
			c-0.452-0.054-0.746-0.347-1.277-1.198l-1.332-2.264l1.438-1.704c0.48-0.56,0.613-0.64,1.172-0.666v-0.559h-1.41l-1.625,2.263
			l-0.772-1.278c-0.372-0.559-0.639-0.905-0.932-1.145c-0.532,0.133-1.624,0.373-2.184,0.479l0.106,0.532
			c0.08-0.026,0.188-0.026,0.24-0.026c0.479,0,0.746,0.213,1.145,0.879L252.677,25.188"/>
	</g>
</g>
</svg>
